# xmcd CD database file
#
# Track frame offsets:
#	150
#	24220
#	38866
#	55960
#	73020
#	90353
#	107506
#	121245
#	146194
#	169587
#	190430
#	208074
#	224620
#	239292
#	255806
#	267606
#	287623
#
# Disc length: 4146 seconds
#
# Revision: 4
# Processed by: cddbd v1.5.2PL0 Copyright (c) Steve Scherf et al.
# Submitted via: CDex 1.70beta2
#
DISCID=f9103011
DTITLE=Ken Hamm - - Live '05 - Disk #1
DYEAR=2005
DGENRE=Blues
TTITLE0=Bad Luck Blues
TTITLE1=North Wind Blues
TTITLE2=Satisfied/Richland Woman
TTITLE3=Walking Blues
TTITLE4=Key To The Highway
TTITLE5=Police Dog Blues
TTITLE6=Last Fair Deal Gone Down
TTITLE7=Fixing To Die/From A Buick 6
TTITLE8=Let's Get Drunk Again
TTITLE9=Winin' Boy Blues
TTITLE10=North Road Blues
TTITLE11=Crosscut Saw
TTITLE12=San Francisco Bay Blues
TTITLE13=Preaching Blues
TTITLE14=Maybelline
TTITLE15=Evil
TTITLE16=Roll and Tumble
EXTD=YEAR: 2005
EXTT0=
EXTT1=
EXTT2=
EXTT3=
EXTT4=
EXTT5=
EXTT6=
EXTT7=
EXTT8=
EXTT9=
EXTT10=
EXTT11=
EXTT12=
EXTT13=
EXTT14=
EXTT15=
EXTT16=
PLAYORDER=
